<?xml version="1.0" encoding="utf-8"?>
<!-- Generator: Adobe Illustrator 26.0.3, SVG Export Plug-In . SVG Version: 6.00 Build 0)  -->
<svg version="1.1" id="Layer_1" xmlns="http://www.w3.org/2000/svg" xmlns:xlink="http://www.w3.org/1999/xlink" x="0px" y="0px"
	 viewBox="0 0 595.28 595.28" style="enable-background:new 0 0 595.28 595.28;" xml:space="preserve">
<style type="text/css">
	.st0{fill:none;stroke:#2B5C6F;stroke-width:5;stroke-miterlimit:10;}
</style>
<path class="st0" d="M303.69,76.58c118.01-0.35,214.19,95.97,214.12,214.23c-0.07,118.01-96.22,214.08-214.47,214
	c-117.05-0.08-216.57-96.31-213.77-219.65C92.14,172.04,185.02,76.42,303.69,76.58z M231.97,431.01c1.37,0,2.32,0,3.28,0
	c11.29,0,22.57,0,33.86,0c7.4,0,7.28,0,7.44,7.51c0.06,2.69-0.68,3.43-3.4,3.42c-27.28-0.1-54.56-0.07-81.85-0.04
	c-1.03,0-2.13-0.33-3.12,0.3c0.12,0.98,0.98,1.21,1.57,1.63c42.61,30.97,90.06,43.14,142.18,35.54
	c45.68-6.67,84.19-27.49,114.56-62.23c40.28-46.07,55.48-99.95,44.98-160.1c-9.62-55.13-39.3-97.68-86.27-128.07
	c-13.81-8.93-28.73-15.59-44.4-20.57c-1.77-0.56-2.66-0.67-2.91,1.7c-0.37,3.57-0.69,7.16-2.07,10.61
	c-24.75,61.8-49.43,123.64-74.11,185.47c-0.67,1.69-1.28,3.4-2.01,5.36c1.56,0,2.74-0.01,3.91,0c53.06,0.27,106.15-0.96,159.18,1.77
	c10.99,0.57,21.84,2.13,32.37,5.44c2.91,0.92,5.92,1.72,9.15,3.87c-1.75,0-2.78,0-3.81,0c-67.32,0-134.64,0.02-201.96-0.07
	c-2.6,0-3.72,0.78-4.66,3.14c-12.62,31.86-25.36,63.67-38.06,95.5C234.56,424.35,233.34,427.51,231.97,431.01z M215.26,311.54
	c16.59,0,33.17-0.04,49.76,0.05c2.01,0.01,2.89-0.61,3.61-2.46c5.74-14.68,11.6-29.32,17.43-43.97
	c20.84-52.41,41.68-104.82,62.56-157.22c0.76-1.9,0.83-2.74-1.65-3.3c-26.06-5.95-52.23-6.66-78.49-1.63
	c-46.02,8.82-84.1,31.34-113.35,67.84c-34.79,43.41-48.08,93.16-40.17,148.21c6.24,43.46,26.11,80.1,57.65,110.51
	c1.15,1.11,2.36,1.48,3.93,1.48c13.64-0.05,27.28-0.09,40.92,0.03c2.19,0.02,3.02-0.81,3.75-2.68c3.86-9.95,7.84-19.86,11.78-29.78
	c9.69-24.38,19.37-48.77,29.12-73.13c0.87-2.18,0.91-3.01-1.85-2.91c-5.19,0.2-10.4,0.06-15.6,0.06c-24.83,0-49.66,0-74.49,0
	c-1.3,0-2.92-0.45-2.15,1.98c2.5,7.89,3.71,16.02,4.36,24.24c0.48,6.07,0.46,12.14,0.01,18.22c-0.13,1.73-0.77,2.34-2.54,2.23
	c-2.54-0.16-5.11-0.13-7.65-0.01c-1.74,0.08-2.47-0.29-2.73-2.27c-1.7-12.94-4.34-25.68-8.64-38.03
	c-5.3-15.23-12.49-29.38-23.65-41.26c-1.52-1.62-4.5-2.68-4.45-4.72c0.04-1.92,2.31-3.73,3.35-5.71c1.01-1.93,2.07-2,3.9-1.03
	c14.11,7.54,24.8,18.42,31.9,32.74c0.97,1.97,2.06,2.61,4.22,2.6C182.48,311.5,198.87,311.54,215.26,311.54z"/>
</svg>
